Simulation
nRows=44
nColumns=15
endheader
time  TH_x TH_y TH_z SC_y  SC_z  SC_x  AC_y  AC_z  AC_x  GH_y  GH_z  GH_yy  EL_x  PS_y
2.8725  0.000000  0.000000  0.000000  -37.34967437962936  -1.587731330204021  -10.918571624699945  49.56040834087732  11.523091826128464  8.775428945139435  -17.85597128833527  11.712389182605422  20.088137903901526  14.010947694916817  120.000000
2.92995  0.000000  0.000000  0.000000  -37.14445265897642  -1.6166775487588811  -10.41989763080471  50.02531719566202  11.286147685715386  8.712327365403302  -18.279120635727942  10.41438154999643  22.959637897368363  14.379950909343803  120.000000
2.9874  0.000000  0.000000  0.000000  -37.09356418092111  -1.5596446507816615  -9.872088043214989  50.40549742233005  11.038848454854712  8.61668901408415  -17.656240197737947  9.229948542576455  24.46196315651264  14.83475197979547  120.000000
3.0448500000000003  0.000000  0.000000  0.000000  -37.161271229094226  -1.4353714620327005  -9.305912909868141  50.669451284826906  10.79961880012596  8.475587494668671  -15.980483764719944  8.152500217798872  24.545497733165288  15.328406018108916  120.000000
3.1023  0.000000  0.000000  0.000000  -37.306069010103975  -1.2642939834406353  -8.743918522821339  50.80852905891971  10.58813093597783  8.282567807718513  -13.31592945810709  7.196261516347346  23.280568819566632  15.817303707728122  120.000000
3.15975  0.000000  0.000000  0.000000  -37.49113202026019  -1.066506857748297  -8.202034900840713  50.83391825152429  10.420954796042432  8.039549053829488  -9.774547111306841  6.382060708302873  20.819561997774013  16.271523612164895  120.000000
3.2172  0.000000  0.000000  0.000000  -37.687531495990676  -0.8614962809669165  -7.693745258343017  50.77164192487534  10.30672252036476  7.756132327963727  -5.533293966488414  5.72386000351215  17.401117696222883  16.68126612686195  120.000000
3.2746500000000003  0.000000  0.000000  0.000000  -37.87180663179397  -0.6686341707882719  -7.231196510119894  50.65369413680276  10.244453458976375  7.449847469022892  -0.8609799776174786  5.221204756816024  13.365237961774215  17.05406201857718  120.000000
3.3321  0.000000  0.000000  0.000000  -38.025154258223345  -0.506040292215061  -6.824558274658572  50.51040768815344  10.226038053171818  7.144284107378799  3.9145403779875525  4.859285914621282  9.10910626168881  17.40664451020173  120.000000
3.38955  0.000000  0.000000  0.000000  -38.133867820441814  -0.38540359415091663  -6.482882581082594  50.3693824425513  10.239358414967477  6.862596708465849  8.520318634422662  4.614631790313633  4.962133553050814  17.75543188838504  120.000000
3.447  0.000000  0.000000  0.000000  -38.19381369268424  -0.31169331766314906  -6.213413753127125  50.24964012714927  10.272077389964137  6.623802630284826  12.794195528585046  4.463264698134272  1.1225817466608594  18.110512128900066  120.000000
3.5044500000000003  0.000000  0.000000  0.000000  -38.21234088098521  -0.28346785548409226  -6.021316665614118  50.157669923069186  10.315351741842397  6.441395259296251  16.65322028331396  4.386241247191171  -2.311138527697748  18.474367213831485  120.000000
3.5619  0.000000  0.000000  0.000000  -38.202071082673065  -0.2908281980611611  -5.911122700285309  50.09292289575394  10.365840737456661  6.321109100794538  20.065889378369672  4.372330880574397  -5.306452393332266  18.844963435397673  120.000000
3.61935  0.000000  0.000000  0.000000  -38.17516059860559  -0.31798186240403536  -5.886691176705365  50.05051237896582  10.424553050179442  6.263105771327062  23.01168259648984  4.417222207412813  -7.847956794727275  19.219073202130875  120.000000
3.6768  0.000000  0.000000  0.000000  -38.14038759272648  -0.35017153579480265  -5.951184053042877  50.02046709469745  10.493320428122129  6.266237750339279  25.451464088651857  4.519411770823679  -9.901778424080092  19.594178359299594  120.000000
3.7342500000000003  0.000000  0.000000  0.000000  -38.10036921323065  -0.37772521781131807  -6.107697599887039  49.989299746450335  10.571648036474285  6.330690730471543  27.34630952749076  4.67704373736684  -11.43089859852789  19.969258319903226  120.000000
3.7917  0.000000  0.000000  0.000000  -38.05163354662626  -0.3961402896984786  -6.35955774820301  49.94360868048091  10.656503098777206  6.457453967330577  28.680483313772367  4.88908811300504  -12.417562068773238  20.34487163739199  120.000000
3.84915  0.000000  0.000000  0.000000  -37.985902398090616  -0.4040444343163541  -6.709725563498784  49.872538833406665  10.74405399006283  6.647064691423833  29.447876445849797  5.157990649376671  -12.84994388979987  20.721906443540448  120.000000
3.9066  0.000000  0.000000  0.000000  -37.892227657116095  -0.40198833785710825  -7.1594089554348805  49.768601003713115  10.831984165550661  6.898928776493626  29.626879207592342  5.4921948410879615  -12.697650832650409  21.100167967597226  120.000000
3.9640500000000003  0.000000  0.000000  0.000000  -37.75806434725354  -0.39143657592036507  -7.707459338942059  49.62886798640988  10.920935212953543  7.210365025650882  29.184612115404327  5.907848259181789  -11.91720047026071  21.47754891999048  120.000000
4.0215  0.000000  0.000000  0.000000  -37.5721141430591  -0.37558448822835316  -8.35103678857406  49.45487549669171  11.013838889040544  7.5760465931308305  28.117502005826726  6.429584245869044  -10.496697795480626  21.849897155738024  120.000000
4.07895  0.000000  0.000000  0.000000  -37.3278074252363  -0.36111892149476954  -9.086951228276453  49.25222048878816  11.113320501969378  7.988484315093238  26.51454847336561  7.090142509178264  -8.525464107013008  22.210302621074128  120.000000
4.1364  0.000000  0.000000  0.000000  -37.02831607904872  -0.3608785389178694  -9.91234431264556  49.03074993791392  11.218943329835312  8.439333934571962  24.598954141782166  7.92914148693997  -6.2436356819024725  22.547378734866598  120.000000
4.19385  0.000000  0.000000  0.000000  -36.6888986668525  -0.39306873353145416  -10.822378842092103  48.80481237352305  11.327174570723338  8.921546971545096  22.69335048508105  8.98942138273335  -4.011890118188675  22.843947782716842  120.000000
4.2513000000000005  0.000000  0.000000  0.000000  -36.33639670822961  -0.47860194126494526  -11.804725382966385  48.59082850446289  11.434231535720711  9.431732847092285  21.106981929714564  10.310499244298422  -2.1969299865747645  23.078916055529913  120.000000
4.30875  0.000000  0.000000  0.000000  -36.00255589407224  -0.633860996306375  -12.836061530021732  48.41129400086244  11.540801092544283  9.966609274447045  20.037424846202953  11.922808855263709  -1.0641297798967082  23.235085694725985  120.000000
4.3662  0.000000  0.000000  0.000000  -35.720633830989684  -0.8582697076454756  -13.878657067989453  48.29783818231391  11.659362234145826  10.518194925325213  19.536212702692662  13.848658598874572  -0.7328437315745684  23.31186643812372  120.000000
4.42365  0.000000  0.000000  0.000000  -35.525272812783065  -1.1143389294526673  -14.875470088532584  48.28467294190784  11.822480270137444  11.072409062270482  19.523353392657  16.10584541270388  -1.179182977299098  23.33644533201552  120.000000
4.4811  0.000000  0.000000  0.000000  -35.45394440432001  -1.33694413770753  -15.748479113754858  48.39475396478713  12.077999294977037  11.618614992519014  19.85045878644924  18.700587178494427  -2.2898054199298454  23.36103066463371  120.000000
4.53855  0.000000  0.000000  0.000000  -35.542701435851974  -1.470153623296867  -16.405861865519082  48.62476543673584  12.464796065658009  12.165447192915824  20.362838509068844  21.5992375318317  -3.9150150345954677  23.444212773885848  120.000000
4.596  0.000000  0.000000  0.000000  -35.806520690930896  -1.4627835963023288  -16.7620797701403  48.96368133282577  13.003755257055928  12.720907835031758  20.936760713549162  24.717184055443887  -5.903306068881533  23.62579738968676  120.000000
4.65345  0.000000  0.000000  0.000000  -36.225075881201874  -1.2500831741357115  -16.752456413192903  49.41326045180555  13.70588299687366  13.261132169619799  21.480228590543597  27.939502606267588  -8.111364097918699  23.901257142985784  120.000000
4.7109000000000005  0.000000  0.000000  0.000000  -36.75485602107456  -0.7736424782995599  -16.328230136329942  49.962099230625  14.560642864364402  13.753192225938784  21.921815525947128  31.13148622404845  -10.395546834170066  24.217552893047362  120.000000
4.76835  0.000000  0.000000  0.000000  -37.35661831739733  -0.015421971172071579  -15.45095831416687  50.565432738794044  15.520281196684518  14.190350189594843  22.224262773715274  34.153942237160706  -12.633186418096741  24.49469014137712  120.000000
4.8258  0.000000  0.000000  0.000000  -38.00570547563313  1.0057385974431954  -14.100460597399815  51.175661404101945  16.51006320037136  14.579266329004211  22.39501186831817  36.89590405822789  -14.749949766203924  24.655189431933476  120.000000
4.88325  0.000000  0.000000  0.000000  -38.70761214405747  2.250700849955284  -12.27555951866473  51.75973260797517  17.444664848684475  14.929373617340591  22.471663754897527  39.29981963713194  -16.723991369890904  24.648077004143392  120.000000
4.9407  0.000000  0.000000  0.000000  -39.49844684206249  3.6654271556297724  -9.987657164690939  52.29680053844129  18.243915385397376  15.251990885390871  22.499334829906893  41.36613646765621  -18.574826331632373  24.45431291356372  120.000000
4.99815  0.000000  0.000000  0.000000  -40.42631853080847  5.185694566674883  -7.260624686573534  52.77749185753035  18.846087658927402  15.556172371354188  22.516913564038855  43.139586853856954  -20.34244426147462  24.07949089706064  120.000000
5.0556  0.000000  0.000000  0.000000  -41.53043107637221  6.738650024359262  -4.136524316425227  53.19808619756219  19.21629608512593  15.847533913378463  22.54868840080147  44.68520867779966  -22.062036194865772  23.54554327419628  120.000000
5.11305  0.000000  0.000000  0.000000  -42.82137196279273  8.246306038185224  -0.6872969199857148  53.55668285590261  19.349634902387994  16.126053674244613  22.601707064689272  46.0663405626581  -23.74555465935161  22.88845779210349  120.000000
5.1705000000000005  0.000000  0.000000  0.000000  -44.27214193411578  9.628803583227  2.9765941796422273  53.85105420506058  19.26702538342045  16.38658614491175  22.66779871832926  47.330837162520496  -25.378292074803934  22.158330381413432  120.000000
5.22795  0.000000  0.000000  0.000000  -45.8176034057765  10.816790814677889  6.706548887798429  54.0820064100512  19.00835516264972  16.615923924299516  22.72820764881086  48.5074362925479  -26.929155139735197  21.413594731894285  120.000000
5.2854  0.000000  0.000000  0.000000  -47.36381761238117  11.762554662178188  10.32752579158679  54.25626157833037  18.622119277596546  16.793655808496915  22.760179382899434  49.608050934617076  -28.365243898599413  20.7100430535734  120.000000
5.34285  0.000000  0.000000  0.000000  -48.80112238903971  12.448560380736794  13.656104934194854  54.3875651702091  18.15691347503522  16.894663253295555  22.743598724277188  50.62862883857423  -29.66012209364529  20.088065721124938  120.000000
